<svg xmlns="http://www.w3.org/2000/svg" viewBox="0 0 156.01 162.25"><defs><style>.cls-1,.cls-2{fill:#1d1d1d;}.cls-2{font-size:12.24px;font-family:Poppins-SemiBold, Poppins;font-weight:600;letter-spacing:0.2em;}</style></defs><g id="Layer_2" data-name="Layer 2"><g id="Capa_1" data-name="Capa 1"><path class="cls-1" d="M24,79.13,16.91,60.18,7.1,86.76H5L16,57.7h2.12L29,86.76H26.88Z"/><path class="cls-1" d="M35.65,55.41V86.76H33.74V55.41Z"/><path class="cls-1" d="M50.43,84.68,58.9,63.75h2l-9.53,23h-2l-9.54-23H42Z"/><path class="cls-1" d="M65.36,69A10.08,10.08,0,0,1,69.3,64.9a10.51,10.51,0,0,1,1.31-.63A10.74,10.74,0,0,1,72,63.82a11.65,11.65,0,0,1,14.71,11.1v1.86c0,3.72,0,10,0,10h-1.9V80.7a9.5,9.5,0,0,1-3.58,4.59A10.47,10.47,0,0,1,75,87.09a11.19,11.19,0,0,1-5.74-1.46,10.12,10.12,0,0,1-3.94-4.15,14.4,14.4,0,0,1,0-12.47Zm18.21.92c-2-4-6.81-5.45-10.9-4.52a8.63,8.63,0,0,0-2.29.91,8.31,8.31,0,0,0-3.3,3.49,13,13,0,0,0,0,10.85,8.46,8.46,0,0,0,3.32,3.51,10.2,10.2,0,0,0,9.75,0,8.74,8.74,0,0,0,3.41-3.56,10.58,10.58,0,0,0,1.15-3.88,14.21,14.21,0,0,0,.08-1.48,12.25,12.25,0,0,0-.68-4.11A8.5,8.5,0,0,0,83.57,69.93Z"/><path class="cls-1" d="M77.09,111.78A10.08,10.08,0,0,1,81,107.67a10.51,10.51,0,0,1,1.31-.63,10.74,10.74,0,0,1,1.39-.45,11.66,11.66,0,0,1,14.71,11.1v1.86c0,3.72,0,10,0,10H96.51v-6.06a9.48,9.48,0,0,1-3.57,4.59,10.47,10.47,0,0,1-6.17,1.8A11.19,11.19,0,0,1,81,128.4a10.18,10.18,0,0,1-3.94-4.15,14.4,14.4,0,0,1,0-12.47Zm18.21.92c-2-4-6.82-5.45-10.9-4.52a8.63,8.63,0,0,0-2.29.91,8.31,8.31,0,0,0-3.3,3.49,13,13,0,0,0,0,10.85,8.46,8.46,0,0,0,3.32,3.51,10.2,10.2,0,0,0,9.75,0,8.74,8.74,0,0,0,3.41-3.56,10.77,10.77,0,0,0,1.15-3.88,14.21,14.21,0,0,0,.08-1.48,12.25,12.25,0,0,0-.68-4.11A9.84,9.84,0,0,0,95.3,112.7Z"/><path class="cls-1" d="M98.55,64.62a10.34,10.34,0,0,1,5.51-1.33v2h-.64a8.31,8.31,0,0,0-5.63,1.93c-1.5,1.28-2.24,3.38-2.24,6.29V86.76H93.64V68.46h1.84l.07,0A7,7,0,0,1,98.55,64.62Z"/><path class="cls-1" d="M135,85.15h13v1.61H132.91V85.15l12.62-19.79H133.2V63.75h14.49v1.61Z"/><path class="cls-1" d="M27.75,100.34v29.1H25.84V102.85l-11.18,8.56H13.13L1.91,102.85v26.59H0v-29.1H2l11.86,9.49,11.86-9.49Z"/><path class="cls-1" d="M39.06,128.34A10.13,10.13,0,0,1,35,124.21a13,13,0,0,1-1.46-6.29A12.7,12.7,0,0,1,35,111.67a10.18,10.18,0,0,1,4.09-4.11,12.62,12.62,0,0,1,11.63,0,10.07,10.07,0,0,1,4,4.09,14.15,14.15,0,0,1,0,12.56,10.29,10.29,0,0,1-4.09,4.13,11.82,11.82,0,0,1-5.82,1.44A11.69,11.69,0,0,1,39.06,128.34ZM49.54,127A8.42,8.42,0,0,0,53,123.55a12.58,12.58,0,0,0,0-11.22,8.37,8.37,0,0,0-3.47-3.41,9.93,9.93,0,0,0-4.66-1.13,9.82,9.82,0,0,0-4.64,1.13,8.5,8.5,0,0,0-3.45,3.41,11.09,11.09,0,0,0-1.31,5.59,11.3,11.3,0,0,0,1.29,5.63A8.34,8.34,0,0,0,40.22,127a9.82,9.82,0,0,0,4.64,1.12A10,10,0,0,0,49.54,127Z"/><path class="cls-1" d="M67,107.31A10.34,10.34,0,0,1,72.48,106v2h-.64a8.3,8.3,0,0,0-5.63,1.93Q64,111.81,64,116.18v13.26h-1.9v-23H64v4.74A7,7,0,0,1,67,107.31Z"/><path class="cls-1" d="M107.3,98.09v31.35h-1.91V98.09Z"/><path class="cls-1" d="M126.74,80.37a11.47,11.47,0,0,1-1.44,1.76,9.74,9.74,0,0,1-3.92,2.5,8.22,8.22,0,0,1-4.62.16,10.49,10.49,0,0,1-4.67-2.68L126,67.93a21.84,21.84,0,0,0-1.57-1.66,10.39,10.39,0,0,0-4.51-2.64,9.57,9.57,0,0,0-5.28,0,11.18,11.18,0,0,0-5,3.1,11.68,11.68,0,0,0-3,5.14,9.86,9.86,0,0,0,.14,5.69,14.57,14.57,0,0,0,9,8.78,10.16,10.16,0,0,0,5.73.05,11.52,11.52,0,0,0,5.06-3.11A14.41,14.41,0,0,0,128,81.43Zm-18.49-4a8.16,8.16,0,0,1,.09-4.6,10.2,10.2,0,0,1,6.27-6.4,7.66,7.66,0,0,1,4.55-.13,9.46,9.46,0,0,1,4.45,2.84L111,81A10.25,10.25,0,0,1,108.25,76.42Z"/><path class="cls-1" d="M133.73,123.53a12.06,12.06,0,0,1-1.43,1.77,9.81,9.81,0,0,1-3.93,2.49,8.22,8.22,0,0,1-4.62.17,10.6,10.6,0,0,1-4.66-2.68L133,111.09a21.69,21.69,0,0,0-1.57-1.66,10.49,10.49,0,0,0-4.51-2.64,9.57,9.57,0,0,0-5.28,0,11.17,11.17,0,0,0-5,3.11,11.6,11.6,0,0,0-3,5.13,9.86,9.86,0,0,0,.14,5.69,14.5,14.5,0,0,0,9,8.78,10.07,10.07,0,0,0,5.73.05,11.38,11.38,0,0,0,5.06-3.11,13.77,13.77,0,0,0,1.55-1.86Zm-18.49-4a8.16,8.16,0,0,1,.09-4.6,9.72,9.72,0,0,1,2.39-3.92,9.92,9.92,0,0,1,3.88-2.48,7.66,7.66,0,0,1,4.55-.13,9.4,9.4,0,0,1,4.45,2.85L118,124.18A10.2,10.2,0,0,1,115.24,119.58Z"/><path class="cls-1" d="M152.52,118.62a29.82,29.82,0,0,0-3.88-1.25,32.88,32.88,0,0,1-3.54-1.13,5.9,5.9,0,0,1-2.24-1.52,3.69,3.69,0,0,1-.91-2.61,3.81,3.81,0,0,1,1.61-3.09,6.33,6.33,0,0,1,4.06-1.27,6.74,6.74,0,0,1,4.58,1.44,5.06,5.06,0,0,1,1.49,2.21h2a6.26,6.26,0,0,0-2.18-3.46,9,9,0,0,0-5.82-1.8,9.19,9.19,0,0,0-3.94.81,6.51,6.51,0,0,0-2.71,2.18,5.06,5.06,0,0,0-1,3,5.33,5.33,0,0,0,1.1,3.52,7,7,0,0,0,2.67,2,32.83,32.83,0,0,0,4.11,1.33c1.41.37,2.53.71,3.35,1a5.6,5.6,0,0,1,2,1.33,3.11,3.11,0,0,1,.83,2.23,4.17,4.17,0,0,1-1.55,3.28,6.16,6.16,0,0,1-4.17,1.34,8.47,8.47,0,0,1-5-1.32,4.82,4.82,0,0,1-1.4-1.49H139.9a6.13,6.13,0,0,0,2.24,2.76,10.77,10.77,0,0,0,6.29,1.7,9.13,9.13,0,0,0,3.9-.81,6.46,6.46,0,0,0,2.71-2.24,5.63,5.63,0,0,0,1-3.22,4.58,4.58,0,0,0-1-3.12A6.67,6.67,0,0,0,152.52,118.62Z"/><circle class="cls-1" cx="21.64" cy="50.3" r="1.62"/><path class="cls-1" d="M77.46,43.07c-.62,0-1.24,0-1.86-.08A21.54,21.54,0,1,1,93.89,7.65h0A21.53,21.53,0,0,1,77.46,43.07Zm0-40.4A18.86,18.86,0,0,0,63,33.7a18.87,18.87,0,1,0,14.42-31Z"/><circle class="cls-1" cx="53.28" cy="4.92" r="2.83"/><text class="cls-2" transform="translate(21.86 154.99)">ARQUITECTURA</text></g></g></svg>