<svg xmlns="http://www.w3.org/2000/svg" viewBox="0 0 337.21 60.82"><defs><style>.cls-1,.cls-2{fill:#182a43;}.cls-2{font-size:10.18px;font-family:Poppins-SemiBold, Poppins;font-weight:600;letter-spacing:0.2em;}</style></defs><g id="Layer_2" data-name="Layer 2"><g id="Capa_1" data-name="Capa 1"><path class="cls-1" d="M94.43,29.73,88.51,14l-8.14,22H78.65L87.72,12h1.75l9,24.1H96.78Z"/><path class="cls-1" d="M104.06,10.05v26h-1.58v-26Z"/><path class="cls-1" d="M116.32,34.33l7-17.36H125l-7.91,19.08h-1.65L107.57,17h1.72Z"/><path class="cls-1" d="M128.71,21.33A8.28,8.28,0,0,1,132,17.92a8.92,8.92,0,0,1,1.08-.52,9.11,9.11,0,0,1,1.15-.38,9.68,9.68,0,0,1,12.21,9.22v1.54c0,3.08,0,8.27,0,8.27h-1.58V31a7.84,7.84,0,0,1-3,3.81,8.63,8.63,0,0,1-5.11,1.49A9.28,9.28,0,0,1,132,35.12a8.35,8.35,0,0,1-3.27-3.44,10.92,10.92,0,0,1-1.18-5.19A10.77,10.77,0,0,1,128.71,21.33Zm15.11.76c-1.63-3.29-5.66-4.52-9-3.74a7,7,0,0,0-1.9.75,6.87,6.87,0,0,0-2.74,2.9,9.69,9.69,0,0,0-1,4.49,9.7,9.7,0,0,0,1,4.5,7,7,0,0,0,2.76,2.92,8.44,8.44,0,0,0,8.08,0,7.19,7.19,0,0,0,2.83-2.95,8.83,8.83,0,0,0,1-3.22,12.07,12.07,0,0,0,.06-1.23,9.78,9.78,0,0,0-.56-3.4A8.18,8.18,0,0,0,143.82,22.09Z"/><path class="cls-1" d="M271.74,21.4A8.4,8.4,0,0,1,275,18a8.92,8.92,0,0,1,1.08-.52,9.21,9.21,0,0,1,1.16-.37,9.66,9.66,0,0,1,12.2,9.21v1.54c0,3.08,0,8.28,0,8.28h-1.58v-5a7.91,7.91,0,0,1-3,3.81,8.67,8.67,0,0,1-5.12,1.5A9.29,9.29,0,0,1,275,35.19a8.42,8.42,0,0,1-3.27-3.44,11,11,0,0,1-1.17-5.18A10.92,10.92,0,0,1,271.74,21.4Zm15.11.77c-1.63-3.3-5.66-4.53-9-3.75a7.17,7.17,0,0,0-1.9.75,6.86,6.86,0,0,0-2.74,2.9,9.58,9.58,0,0,0-1,4.5,9.56,9.56,0,0,0,1,4.49A6.93,6.93,0,0,0,275.92,34,8,8,0,0,0,280,35a7.89,7.89,0,0,0,4-1A7.25,7.25,0,0,0,286.84,31a8.82,8.82,0,0,0,1-3.22,12,12,0,0,0,.07-1.22,10.07,10.07,0,0,0-.57-3.41A6.33,6.33,0,0,0,286.85,22.17Z"/><path class="cls-1" d="M156.24,17.69a8.57,8.57,0,0,1,4.57-1.11v1.66h-.53a6.9,6.9,0,0,0-4.67,1.6q-1.86,1.59-1.86,5.21v11h-1.58V20.88h1.53l.06,0A5.82,5.82,0,0,1,156.24,17.69Z"/><path class="cls-1" d="M186.5,34.72h10.75v1.33H184.74V34.72l10.48-16.41H185V17h12v1.34Z"/><path class="cls-1" d="M230.8,11.91V36.05h-1.58V14l-9.28,7.11h-1.26L209.37,14V36.05h-1.58V11.91h1.68l9.84,7.87,9.84-7.87Z"/><path class="cls-1" d="M240.19,35.14a8.47,8.47,0,0,1-3.36-3.43,10.71,10.71,0,0,1-1.21-5.22,10.58,10.58,0,0,1,1.23-5.18,8.43,8.43,0,0,1,3.39-3.41,10.53,10.53,0,0,1,9.65,0,8.47,8.47,0,0,1,3.35,3.39,10.65,10.65,0,0,1,1.21,5.2,10.6,10.6,0,0,1-1.23,5.22,8.54,8.54,0,0,1-3.39,3.43A9.77,9.77,0,0,1,245,36.33,9.67,9.67,0,0,1,240.19,35.14ZM248.88,34a7,7,0,0,0,2.9-2.83,9.23,9.23,0,0,0,1.09-4.68,9.12,9.12,0,0,0-1.09-4.63A6.94,6.94,0,0,0,248.9,19,8.24,8.24,0,0,0,245,18.1a8.14,8.14,0,0,0-3.85.93,7,7,0,0,0-2.87,2.83,9.22,9.22,0,0,0-1.09,4.63,9.34,9.34,0,0,0,1.08,4.68A7,7,0,0,0,241.15,34a8.2,8.2,0,0,0,3.85.93A8.35,8.35,0,0,0,248.88,34Z"/><path class="cls-1" d="M263.35,17.69a8.51,8.51,0,0,1,4.56-1.11v1.66h-.52a6.91,6.91,0,0,0-4.68,1.6q-1.86,1.59-1.86,5.21v11h-1.58V17h1.58v3.94A5.79,5.79,0,0,1,263.35,17.69Z"/><path class="cls-1" d="M296.8,10.05v26h-1.58v-26Z"/><path class="cls-1" d="M179.62,30.75a9.27,9.27,0,0,1-1.18,1.47,8.16,8.16,0,0,1-3.26,2.07,6.81,6.81,0,0,1-3.83.14,8.68,8.68,0,0,1-3.87-2.23L179,20.43c-.27-.32-.71-.78-1.31-1.37A8.72,8.72,0,0,0,174,16.87a8,8,0,0,0-4.38,0,9.4,9.4,0,0,0-4.18,2.58,9.82,9.82,0,0,0-2.53,4.26,8.26,8.26,0,0,0,.12,4.72,11,11,0,0,0,2.89,4.49,11.08,11.08,0,0,0,4.57,2.8,8.47,8.47,0,0,0,4.76,0,9.62,9.62,0,0,0,4.2-2.58,12.08,12.08,0,0,0,1.28-1.55Zm-15.33-3.27a6.87,6.87,0,0,1,.07-3.82,8.2,8.2,0,0,1,2-3.25,8.34,8.34,0,0,1,3.22-2.06,6.48,6.48,0,0,1,3.78-.11A8,8,0,0,1,177,20.6L166.55,31.29A8.47,8.47,0,0,1,164.29,27.48Z"/><path class="cls-1" d="M318.73,31.15a10.51,10.51,0,0,1-1.19,1.47,8.16,8.16,0,0,1-3.26,2.07,6.81,6.81,0,0,1-3.83.13,8.61,8.61,0,0,1-3.87-2.22l11.54-11.77c-.27-.33-.71-.79-1.31-1.38a8.67,8.67,0,0,0-3.73-2.18,8,8,0,0,0-4.39,0,9.28,9.28,0,0,0-4.17,2.58A9.63,9.63,0,0,0,302,24.11a8.09,8.09,0,0,0,.12,4.72A10.83,10.83,0,0,0,305,33.31a10.79,10.79,0,0,0,4.56,2.8,8.3,8.3,0,0,0,4.76,0,9.5,9.5,0,0,0,4.2-2.57A12.81,12.81,0,0,0,319.8,32Zm-15.34-3.28a6.84,6.84,0,0,1,.07-3.81,8.2,8.2,0,0,1,2-3.25,8.3,8.3,0,0,1,3.23-2.06,6.36,6.36,0,0,1,3.77-.11A7.78,7.78,0,0,1,316.13,21L305.65,31.69A8.54,8.54,0,0,1,303.39,27.87Z"/><path class="cls-1" d="M334.31,27.07a26.2,26.2,0,0,0-3.21-1,29.36,29.36,0,0,1-2.94-.93,5.18,5.18,0,0,1-1.86-1.27,3.09,3.09,0,0,1-.75-2.16,3.18,3.18,0,0,1,1.33-2.57,5.31,5.31,0,0,1,3.38-1.05,5.56,5.56,0,0,1,3.79,1.2,4.13,4.13,0,0,1,1.24,1.83h1.64a5.18,5.18,0,0,0-1.81-2.87,7.41,7.41,0,0,0-4.83-1.49,7.76,7.76,0,0,0-3.27.66,5.59,5.59,0,0,0-2.25,1.81,4.19,4.19,0,0,0-.8,2.48,4.4,4.4,0,0,0,.91,2.92,5.82,5.82,0,0,0,2.21,1.63,29.25,29.25,0,0,0,3.41,1.11,26.78,26.78,0,0,1,2.78.84,4.49,4.49,0,0,1,1.7,1.11,2.55,2.55,0,0,1,.69,1.84,3.49,3.49,0,0,1-1.28,2.73,5.12,5.12,0,0,1-3.47,1.1,7,7,0,0,1-4.16-1.09,4.09,4.09,0,0,1-1.16-1.23h-1.75a5.08,5.08,0,0,0,1.85,2.29,8.94,8.94,0,0,0,5.22,1.4,7.69,7.69,0,0,0,3.24-.66,5.4,5.4,0,0,0,2.25-1.87,4.69,4.69,0,0,0,.8-2.67,3.81,3.81,0,0,0-.84-2.58A5.58,5.58,0,0,0,334.31,27.07Z"/><circle class="cls-1" cx="92.44" cy="5.81" r="1.35"/><path class="cls-1" d="M38.14,60.82c-.87,0-1.75,0-2.63-.12A30.13,30.13,0,0,1,14.84,50a30.41,30.41,0,0,1,46.5-39.2h0a30.41,30.41,0,0,1-3.65,42.85A30.15,30.15,0,0,1,38.14,60.82ZM38.07,3.76A26.64,26.64,0,0,0,35.83,57,26.64,26.64,0,1,0,38.07,3.76Z"/><circle class="cls-1" cx="4" cy="6.94" r="4"/><text class="cls-2" transform="translate(78.5 53.21)">ARQUITECTURA</text></g></g></svg>