<svg xmlns="http://www.w3.org/2000/svg" viewBox="0 0 127.83 178.18"><defs><style>.cls-1{font-size:9.91px;font-family:Poppins-SemiBold, Poppins;font-weight:600;letter-spacing:0.2em;}.cls-1,.cls-2{fill:#182a43;}</style></defs><g id="Layer_2" data-name="Layer 2"><g id="Capa_1" data-name="Capa 1"><text class="cls-1" transform="translate(1.31 172.31)">ARQUITECTURA</text><path class="cls-2" d="M16.51,106.16,10.75,90.85,2.82,112.32H1.14L10,88.84h1.71l8.79,23.48H18.81Z"/><path class="cls-2" d="M25.89,87v25.33H24.35V87Z"/><path class="cls-2" d="M37.84,110.65l6.85-16.91h1.64l-7.7,18.58H37l-7.7-18.58H31Z"/><path class="cls-2" d="M49.91,98a8.08,8.08,0,0,1,3.18-3.32,10.17,10.17,0,0,1,1-.51,8.74,8.74,0,0,1,1.13-.36,9.41,9.41,0,0,1,11.88,9v1.5c0,3,0,8.06,0,8.06H65.6v-4.89a7.7,7.7,0,0,1-2.89,3.71,8.44,8.44,0,0,1-5,1.46,9.15,9.15,0,0,1-4.64-1.18,8.19,8.19,0,0,1-3.18-3.36,11.62,11.62,0,0,1,0-10.08Zm14.71.75c-1.59-3.22-5.51-4.41-8.81-3.65a6.93,6.93,0,0,0-1.85.73,6.74,6.74,0,0,0-2.67,2.82,10.47,10.47,0,0,0,0,8.76A6.86,6.86,0,0,0,54,110.24a8.24,8.24,0,0,0,7.87,0,7,7,0,0,0,2.76-2.88,8.73,8.73,0,0,0,.93-3.13,11.76,11.76,0,0,0,.06-1.2,9.59,9.59,0,0,0-.55-3.32A6.86,6.86,0,0,0,64.62,98.73Z"/><path class="cls-2" d="M64.06,132.54a8.14,8.14,0,0,1,3.18-3.32,9.41,9.41,0,0,1,1.06-.51,9.77,9.77,0,0,1,1.12-.36,9.42,9.42,0,0,1,11.89,9c0,.38,0,.9,0,1.5,0,3,0,8.07,0,8.07H79.75V142a7.6,7.6,0,0,1-2.89,3.71,8.44,8.44,0,0,1-5,1.46A9.07,9.07,0,0,1,67.24,146a8.19,8.19,0,0,1-3.18-3.36,11.62,11.62,0,0,1,0-10.08Zm14.71.75c-1.59-3.21-5.51-4.41-8.81-3.65a6.93,6.93,0,0,0-1.85.73,6.74,6.74,0,0,0-2.67,2.82,10.6,10.6,0,0,0,0,8.77,6.83,6.83,0,0,0,2.69,2.84,8.24,8.24,0,0,0,7.87,0,7,7,0,0,0,2.76-2.88,8.34,8.34,0,0,0,.93-3.13,11.61,11.61,0,0,0,.06-1.2,9.88,9.88,0,0,0-.54-3.32A8.33,8.33,0,0,0,78.77,133.29Z"/><path class="cls-2" d="M76.73,94.44a8.31,8.31,0,0,1,4.45-1.08V95h-.52a6.74,6.74,0,0,0-4.55,1.56c-1.21,1-1.82,2.73-1.82,5.08v10.71H72.75V97.54h1.49l.05,0A5.65,5.65,0,0,1,76.73,94.44Z"/><path class="cls-2" d="M106.2,111h10.47v1.3H104.49V111l10.2-16h-10v-1.3h11.7V95Z"/><path class="cls-2" d="M24.18,123.3v23.52H22.64V125.33l-9,6.92H12.37L3.3,125.33v21.49H1.76V123.3H3.4L13,131l9.58-7.67Z"/><path class="cls-2" d="M33.32,145.93a8.28,8.28,0,0,1-3.27-3.34,10.48,10.48,0,0,1-1.18-5.09,10.26,10.26,0,0,1,1.2-5,8.18,8.18,0,0,1,3.3-3.32A9.63,9.63,0,0,1,38.08,128a9.53,9.53,0,0,1,4.69,1.15,8.12,8.12,0,0,1,3.27,3.3,11.42,11.42,0,0,1,0,10.15,8.35,8.35,0,0,1-3.3,3.34A9.67,9.67,0,0,1,38,147.09,9.54,9.54,0,0,1,33.32,145.93Zm8.47-1.12a6.8,6.8,0,0,0,2.83-2.75,9.1,9.1,0,0,0,1.06-4.56A9,9,0,0,0,44.62,133a6.9,6.9,0,0,0-2.81-2.76,8.1,8.1,0,0,0-3.77-.91,8,8,0,0,0-3.74.91A6.8,6.8,0,0,0,31.51,133a8.88,8.88,0,0,0-1.06,4.51,9.1,9.1,0,0,0,1,4.56,6.73,6.73,0,0,0,2.77,2.75,7.88,7.88,0,0,0,3.75.91A8.05,8.05,0,0,0,41.79,144.81Z"/><path class="cls-2" d="M55.88,128.93a8.33,8.33,0,0,1,4.45-1.08v1.61h-.52A6.74,6.74,0,0,0,55.26,131q-1.82,1.56-1.81,5.08v10.72H51.91V128.23h1.54v3.83A5.59,5.59,0,0,1,55.88,128.93Z"/><path class="cls-2" d="M88.47,121.48v25.34H86.93V121.48Z"/><path class="cls-2" d="M99.5,107.16a8.87,8.87,0,0,1-1.16,1.43,8,8,0,0,1-3.17,2,6.73,6.73,0,0,1-3.73.13,8.47,8.47,0,0,1-3.77-2.17L98.91,97.11a16.9,16.9,0,0,0-1.28-1.34A8.29,8.29,0,0,0,94,93.64a7.78,7.78,0,0,0-4.28,0,9,9,0,0,0-4.06,2.51,9.58,9.58,0,0,0-2.47,4.15,8,8,0,0,0,.12,4.6A11.71,11.71,0,0,0,90.57,112a8.06,8.06,0,0,0,4.64,0,9.27,9.27,0,0,0,4.09-2.51,11.19,11.19,0,0,0,1.24-1.5ZM84.56,104a6.7,6.7,0,0,1,.07-3.72,8,8,0,0,1,1.93-3.16,8,8,0,0,1,3.14-2A6.31,6.31,0,0,1,93.38,95,7.65,7.65,0,0,1,97,97.27L86.76,107.69A8.38,8.38,0,0,1,84.56,104Z"/><path class="cls-2" d="M109.82,142a9.36,9.36,0,0,1-1.15,1.43,8.06,8.06,0,0,1-3.18,2,6.7,6.7,0,0,1-3.72.13A8.45,8.45,0,0,1,98,143.45L109.23,132a16.37,16.37,0,0,0-1.27-1.34,8.32,8.32,0,0,0-3.64-2.13,7.75,7.75,0,0,0-4.27,0A9,9,0,0,0,96,131a9.46,9.46,0,0,0-2.46,4.15,7.93,7.93,0,0,0,.11,4.6,11.71,11.71,0,0,0,7.26,7.09,8.06,8.06,0,0,0,4.64,0,9.21,9.21,0,0,0,4.09-2.51,12.12,12.12,0,0,0,1.25-1.5Zm-14.94-3.19a6.7,6.7,0,0,1,.08-3.72A7.73,7.73,0,0,1,96.89,132a8,8,0,0,1,3.13-2,6.31,6.31,0,0,1,3.68-.11,7.73,7.73,0,0,1,3.6,2.3L97.09,142.57A8.41,8.41,0,0,1,94.88,138.85Z"/><path class="cls-2" d="M125,138.07a24.24,24.24,0,0,0-3.13-1,26,26,0,0,1-2.86-.91,4.74,4.74,0,0,1-1.82-1.23,3,3,0,0,1-.73-2.1,3.06,3.06,0,0,1,1.3-2.5,5.09,5.09,0,0,1,3.28-1,5.47,5.47,0,0,1,3.7,1.16,4.08,4.08,0,0,1,1.21,1.79h1.59a5,5,0,0,0-1.76-2.8,7.21,7.21,0,0,0-4.7-1.45,7.58,7.58,0,0,0-3.19.65,5.43,5.43,0,0,0-2.19,1.76,4.13,4.13,0,0,0-.78,2.42,4.26,4.26,0,0,0,.89,2.84,5.73,5.73,0,0,0,2.15,1.59,28.34,28.34,0,0,0,3.32,1.08,26.13,26.13,0,0,1,2.71.82,4.43,4.43,0,0,1,1.66,1.08,2.49,2.49,0,0,1,.67,1.79,3.4,3.4,0,0,1-1.25,2.66,5,5,0,0,1-3.38,1.07,6.83,6.83,0,0,1-4-1.06,3.89,3.89,0,0,1-1.13-1.2h-1.71a5,5,0,0,0,1.81,2.23,8.73,8.73,0,0,0,5.08,1.37,7.42,7.42,0,0,0,3.15-.65,5.12,5.12,0,0,0,2.19-1.82,4.48,4.48,0,0,0,.79-2.6,3.67,3.67,0,0,0-.82-2.51A5.43,5.43,0,0,0,125,138.07Z"/><circle class="cls-2" cx="14.57" cy="82.86" r="1.31"/><path class="cls-2" d="M44.35,70.72c-1,0-2,0-3.06-.13a35.37,35.37,0,1,1,30-58h0a35.37,35.37,0,0,1-27,58.17ZM44.27,4.38A31,31,0,1,0,68,15.38,30.85,30.85,0,0,0,44.27,4.38Z"/><circle class="cls-2" cx="4.65" cy="8.07" r="4.65"/></g></g></svg>