<svg xmlns="http://www.w3.org/2000/svg" viewBox="0 0 175 182"><defs><style>.cls-1,.cls-2{fill:#e0d8d8;}.cls-2{font-size:13.73px;font-family:Poppins-SemiBold, Poppins;font-weight:600;letter-spacing:0.2em;}</style></defs><g id="Layer_2" data-name="Layer 2"><g id="Capa_1" data-name="Capa 1"><path class="cls-1" d="M27,88.76,19,67.51,8,97.32H5.63l12.26-32.6h2.38l12.21,32.6H30.15Z"/><path class="cls-1" d="M40,62.15V97.32H37.85V62.15Z"/><path class="cls-1" d="M56.57,95l9.5-23.48h2.28L57.66,97.32H55.43L44.74,71.51h2.33Z"/><path class="cls-1" d="M73.32,77.41a11.17,11.17,0,0,1,4.42-4.61,11.56,11.56,0,0,1,1.46-.71,12.31,12.31,0,0,1,1.56-.5A13.07,13.07,0,0,1,97.26,84v2.08c0,4.17,0,11.2,0,11.2H95.11v-6.8a10.67,10.67,0,0,1-4,5.16,11.77,11.77,0,0,1-6.91,2,12.61,12.61,0,0,1-6.44-1.64,11.42,11.42,0,0,1-4.42-4.66,14.82,14.82,0,0,1-1.59-7A14.64,14.64,0,0,1,73.32,77.41Zm20.43,1C91.54,74,86.1,72.33,81.52,73.37a10.14,10.14,0,0,0-2.57,1,9.37,9.37,0,0,0-3.71,3.92,14.56,14.56,0,0,0,0,12.16,9.49,9.49,0,0,0,3.73,4,10.81,10.81,0,0,0,5.49,1.37,10.68,10.68,0,0,0,5.44-1.4,9.76,9.76,0,0,0,3.83-4A11.74,11.74,0,0,0,95,86.05a15,15,0,0,0,.09-1.66,13.79,13.79,0,0,0-.76-4.61C94.17,79.32,94,78.87,93.75,78.44Z"/><path class="cls-1" d="M86.48,125.38a11.29,11.29,0,0,1,4.42-4.61,10.88,10.88,0,0,1,1.46-.7,11.39,11.39,0,0,1,1.56-.51A13.08,13.08,0,0,1,110.42,132v2.08c0,4.17,0,11.19,0,11.19h-2.14V138.5a10.63,10.63,0,0,1-4,5.15,11.71,11.71,0,0,1-6.92,2A12.6,12.6,0,0,1,90.9,144a11.3,11.3,0,0,1-4.42-4.66,16.09,16.09,0,0,1,0-14Zm20.42,1c-2.2-4.46-7.65-6.12-12.23-5.07a9.7,9.7,0,0,0-2.56,1,9.37,9.37,0,0,0-3.71,3.92,14.59,14.59,0,0,0,0,12.17,9.47,9.47,0,0,0,3.73,3.94,11.44,11.44,0,0,0,10.93,0,9.8,9.8,0,0,0,3.82-4,12.05,12.05,0,0,0,1.3-4.36c0-.53.08-1.08.08-1.65a13.26,13.26,0,0,0-.76-4.61A10.12,10.12,0,0,0,106.9,126.42Z"/><path class="cls-1" d="M110.55,72.49a11.55,11.55,0,0,1,6.18-1.5v2.23H116a9.38,9.38,0,0,0-6.32,2.17q-2.52,2.16-2.52,7V97.32H105V76.79h2.07l.07,0A7.88,7.88,0,0,1,110.55,72.49Z"/><path class="cls-1" d="M151.46,95.51H166v1.81H149.08V95.51l14.16-22.19H149.42V71.51h16.25v1.81Z"/><path class="cls-1" d="M31.12,112.55v32.64H29V115.37L16.44,125H14.73l-12.59-9.6v29.82H0V112.55H2.28L15.59,123.2l13.3-10.65Z"/><path class="cls-1" d="M43.81,144a11.44,11.44,0,0,1-4.54-4.63,14.64,14.64,0,0,1-1.64-7.06,14.28,14.28,0,0,1,1.67-7,11.3,11.3,0,0,1,4.58-4.61,13.46,13.46,0,0,1,6.53-1.59,13.3,13.3,0,0,1,6.51,1.59,11.22,11.22,0,0,1,4.54,4.59,15.87,15.87,0,0,1,0,14.09A11.56,11.56,0,0,1,56.85,144a14,14,0,0,1-13,0Zm11.76-1.55a9.41,9.41,0,0,0,3.92-3.82,14.21,14.21,0,0,0,0-12.59,9.51,9.51,0,0,0-3.9-3.83,11.42,11.42,0,0,0-10.43,0A9.56,9.56,0,0,0,41.29,126a12.43,12.43,0,0,0-1.47,6.27,12.65,12.65,0,0,0,1.45,6.32,9.31,9.31,0,0,0,3.85,3.82,11,11,0,0,0,5.2,1.26A11.3,11.3,0,0,0,55.57,142.41Z"/><path class="cls-1" d="M75.12,120.37a11.59,11.59,0,0,1,6.18-1.5v2.23h-.71a9.31,9.31,0,0,0-6.32,2.17q-2.52,2.16-2.52,7v14.87H69.61v-25.8h2.14v5.32A7.8,7.8,0,0,1,75.12,120.37Z"/><path class="cls-1" d="M120.36,110v35.16h-2.14V110Z"/><path class="cls-1" d="M142.16,90.15a12.52,12.52,0,0,1-1.6,2,11.05,11.05,0,0,1-4.41,2.8,9.24,9.24,0,0,1-5.17.19,11.82,11.82,0,0,1-5.24-3l15.6-15.91a23,23,0,0,0-1.77-1.87,11.66,11.66,0,0,0-5-3,10.77,10.77,0,0,0-5.93,0A12.56,12.56,0,0,0,123,74.87a13.06,13.06,0,0,0-3.42,5.76,11,11,0,0,0,.16,6.38,16.3,16.3,0,0,0,10.08,9.85,11.27,11.27,0,0,0,6.43,0,12.86,12.86,0,0,0,5.68-3.48,15.57,15.57,0,0,0,1.73-2.09Zm-20.74-4.43a9.3,9.3,0,0,1,.1-5.16,11.13,11.13,0,0,1,2.68-4.4,11.32,11.32,0,0,1,4.36-2.78,8.7,8.7,0,0,1,5.11-.15,10.68,10.68,0,0,1,5,3.19L124.48,90.88A11.64,11.64,0,0,1,121.42,85.72Z"/><path class="cls-1" d="M150,138.57a12.52,12.52,0,0,1-1.6,2,11.16,11.16,0,0,1-4.41,2.8,9.25,9.25,0,0,1-5.17.18,11.85,11.85,0,0,1-5.24-3l15.6-15.92c-.36-.44-1-1.06-1.76-1.86a11.78,11.78,0,0,0-5.06-3,10.77,10.77,0,0,0-5.93,0,12.62,12.62,0,0,0-5.64,3.48,13.14,13.14,0,0,0-3.42,5.77,11.11,11.11,0,0,0,.16,6.38,16.3,16.3,0,0,0,10.08,9.85,11.35,11.35,0,0,0,6.43.05,12.9,12.9,0,0,0,5.68-3.48,16.22,16.22,0,0,0,1.73-2.09Zm-20.73-4.43a9.12,9.12,0,0,1,.1-5.16,11,11,0,0,1,2.67-4.4,11.21,11.21,0,0,1,4.36-2.78,8.62,8.62,0,0,1,5.11-.15,10.67,10.67,0,0,1,5,3.19L132.32,139.3A11.63,11.63,0,0,1,129.27,134.14Z"/><path class="cls-1" d="M171.08,133.05a34.13,34.13,0,0,0-4.35-1.4,36,36,0,0,1-4-1.26,6.6,6.6,0,0,1-2.51-1.71,4.12,4.12,0,0,1-1-2.92,4.3,4.3,0,0,1,1.81-3.47,7.12,7.12,0,0,1,4.56-1.42,7.51,7.51,0,0,1,5.13,1.61A5.66,5.66,0,0,1,172.4,125h2.21a6.93,6.93,0,0,0-2.44-3.88,10,10,0,0,0-6.53-2,10.42,10.42,0,0,0-4.42.9,7.46,7.46,0,0,0-3,2.45,5.68,5.68,0,0,0-1.09,3.35,5.94,5.94,0,0,0,1.23,3.94,7.7,7.7,0,0,0,3,2.21,37.24,37.24,0,0,0,4.6,1.5,37,37,0,0,1,3.76,1.14,6.05,6.05,0,0,1,2.3,1.5,3.46,3.46,0,0,1,.93,2.49,4.65,4.65,0,0,1-1.74,3.68,6.89,6.89,0,0,1-4.68,1.5,9.57,9.57,0,0,1-5.63-1.47,5.6,5.6,0,0,1-1.56-1.67h-2.37a6.84,6.84,0,0,0,2.51,3.09,12.06,12.06,0,0,0,7.05,1.9,10.33,10.33,0,0,0,4.38-.9,7.28,7.28,0,0,0,3-2.52,6.27,6.27,0,0,0,1.09-3.61,5.11,5.11,0,0,0-1.14-3.49A7.54,7.54,0,0,0,171.08,133.05Z"/><circle class="cls-1" cx="24.27" cy="56.42" r="1.82"/><path class="cls-1" d="M86.89,48.31c-.7,0-1.39,0-2.09-.08A24.16,24.16,0,1,1,105.32,8.58h0a24.16,24.16,0,0,1-2.9,34A24,24,0,0,1,86.89,48.31ZM86.83,3A21.17,21.17,0,1,0,103,10.51,21.05,21.05,0,0,0,86.83,3Z"/><circle class="cls-1" cx="59.77" cy="5.51" r="3.18"/><text class="cls-2" transform="translate(24.52 173.86)">ARQUITECTURA</text></g></g></svg>